<svg xmlns="http://www.w3.org/2000/svg" viewBox="0 0 199.8 32.01"><defs><style>.cls-1{fill:#0054a7}.cls-2{fill:#e5004e}</style></defs><title>アセット 3</title><g id="レイヤー_2" data-name="レイヤー 2"><g id="head"><g id="_グループ_" data-name="&lt;グループ&gt;"><g id="_グループ_2" data-name="&lt;グループ&gt;"><path id="_パス_" data-name="&lt;パス&gt;" class="cls-1" d="M52 28.84h-4.67c-5.64 0-7.12-3.33-4.58-10.31l5-13.75h-7.19s-3.88 10.64-5 13.75c-2.94 8.08-.18 12.71 9.76 12.71h13L68 4.77h-7.2L52 28.84"/><path id="_パス_2" data-name="&lt;パス&gt;" class="cls-1" d="M21.75 4.78c-6.52.11-13.34 3.35-16.28 11.43L0 31.24h7.19S9 26.19 11.58 19.17h20.19l.87-2.4H12.46l.2-.57c2.55-7 6.26-9 10.82-9h12.66L37 4.77H21.75c3.15 0 0 0 0 0"/><path id="_パス_3" data-name="&lt;パス&gt;" class="cls-1" d="M70.32 7.18h10.1l-8.77 24.06h7.2l8.76-24.06h10.1l.87-2.41H71.2l-.88 2.41z"/><path id="_パス_4" data-name="&lt;パス&gt;" class="cls-1" d="M132.74 18.13h-5.31s3.75 8.11 3.92 8.51a6.92 6.92 0 0 0 7 4.58H143s-6.07-10.1-6.38-10.68a2.29 2.29 0 0 0-.82-.86h1.71a11.64 11.64 0 0 0 10.89-7.31c1.28-3.5-.55-7.6-7.39-7.6h-19.35s-6.5 17.88-8.76 24.06h-4.67c-5.64 0-7.13-3.33-4.58-10.31l5-13.75h-7.2l-5 13.75c-2.94 8.08-.18 12.71 9.77 12.71h13L128 7.18h9c3.81 0 5.15 2.39 4 5.37s-2.82 5.58-8.31 5.58"/><path id="_パス_5" data-name="&lt;パス&gt;" class="cls-2" d="M195.39 0a4.41 4.41 0 1 0 4.41 4.41A4.41 4.41 0 0 0 195.39 0"/><path id="_複合パス_" data-name="&lt;複合パス&gt;" class="cls-1" d="M179.78 8.89c-1 2.56-3.69 3.73-6 4.61-3.39 1.26-8.28 1.9-14.67 2 3.37-4.27 8.7-8.5 15.39-9.5 4.42-.65 5.91 1.3 5.28 2.86m-6.65-4.08A34.27 34.27 0 0 0 155 15.56h-5.36l-.37 1h4.89a25.38 25.38 0 0 0-4 6.95c-2.3 6.25 2.23 10.89 13.16 7.11a39.65 39.65 0 0 0 16.94-11.28l.51-1.29c-1.26 1.19-7.08 6.94-14.65 9.91-8.69 3.41-13 .43-10.71-6.19a21.35 21.35 0 0 1 2.84-5.19c6.69 0 13.06-.29 17.39-1.85 3.89-1.41 7.4-2.93 8.5-6s-3.19-5.76-11-3.92"/></g></g></g></g></svg>